<?xml version="1.0" encoding="UTF-8"?>
<svg xmlns="http://www.w3.org/2000/svg" width="1700" height="380" viewBox="0 0 1700 380" role="img" aria-labelledby="title desc">
<title id="title">NivasaOS horizontal logo — light mode</title>
<desc id="desc">Horizontal NivasaOS logo for light backgrounds using primary colour #101828.</desc>
<g transform="translate(70.00,80.00) scale(0.85937500)"><path d="M 40,58 L 78,82 L 78,214 L 40,190 Z" fill="#101828"/>
<path d="M 78,80 L 116,104 L 190,152 L 152,176 Z" fill="#101828"/>
<path d="M 78,122 L 116,146 L 190,194 L 152,218 Z" fill="#101828"/>
<path d="M 165,46 L 206,72 L 180,90 L 139,64 Z" fill="#101828"/>
<path d="M 165,80 L 206,54 L 206,96 L 165,122 Z" fill="#101828"/>
<path d="M 165,126 L 206,100 L 206,142 L 165,168 Z" fill="#101828"/>
<path d="M 165,172 L 206,146 L 206,188 L 165,214 Z" fill="#101828"/></g>
<g transform="translate(360.00,127.00)">
    <g transform="scale(0.07884856, -0.07884856)">
      <g transform="translate(-135.000, -1572.000)" fill="#101828"><path d="M135 0H447V685C447 773 438 933 427 1113C519 927 574 818 657 684L1085 0H1426V1490H1114V775C1114 677 1122 517 1133 371C1068 526 1005 639 946 736L475 1490H135Z" transform="translate(0,0)"/><path d="M128 0H428V1118H128ZM278 1264C368 1264 443 1332 443 1418C443 1503 368 1572 278 1572C187 1572 113 1503 113 1418C113 1332 187 1264 278 1264Z" transform="translate(1561,0)"/><path d="M443 0H784L1197 1118H882L696 538C665 437 641 337 618 233C594 337 569 438 538 538L350 1118H31Z" transform="translate(2116,0)"/><path d="M440 -22C605 -22 713 51 767 155H777V0H1061V753C1061 1024 827 1132 587 1132C337 1132 157 1021 100 827L375 781C399 853 470 910 586 910C698 910 761 856 761 761V756C761 683 682 675 490 656C270 635 68 563 68 313C68 92 227 -22 440 -22ZM525 189C426 189 356 234 356 321C356 411 430 454 541 470C607 479 726 495 763 521V400C763 282 665 189 525 189Z" transform="translate(3344,0)"/><path d="M572 -22C865 -22 1072 125 1072 345C1072 504 968 603 752 647L551 687C445 709 407 748 407 804C407 871 483 917 581 917C690 917 753 863 777 787L1043 834C1001 1016 842 1132 577 1132C294 1132 107 1000 107 785C107 618 213 512 429 468L622 428C720 408 766 372 766 313C766 246 695 198 581 198C458 198 386 249 357 354L78 306C117 98 302 -22 572 -22Z" transform="translate(4533,0)"/><path d="M440 -22C605 -22 713 51 767 155H777V0H1061V753C1061 1024 827 1132 587 1132C337 1132 157 1021 100 827L375 781C399 853 470 910 586 910C698 910 761 856 761 761V756C761 683 682 675 490 656C270 635 68 563 68 313C68 92 227 -22 440 -22ZM525 189C426 189 356 234 356 321C356 411 430 454 541 470C607 479 726 495 763 521V400C763 282 665 189 525 189Z" transform="translate(5680,0)"/></g>
      <g transform="translate(6539.000, -1572.000)" fill="#101828"><path d="M784 -20C1166 -20 1444 272 1444 744C1444 1217 1166 1510 784 1510C402 1510 122 1217 122 744C122 272 402 -20 784 -20ZM784 156C516 156 307 364 307 744C307 1126 516 1334 784 1334C1050 1334 1259 1127 1259 744C1259 363 1050 156 784 156Z" transform="translate(0,0)"/><path d="M657 -26C1001 -26 1198 162 1198 406C1198 684 936 774 776 818L627 859C518 889 343 944 343 1100C343 1240 471 1342 664 1342C841 1342 975 1259 992 1114H1178C1169 1339 964 1510 670 1510C382 1510 158 1343 158 1091C158 893 298 770 538 702L718 651C877 606 1013 553 1013 409C1013 250 859 144 657 144C482 144 326 221 311 390H116C133 140 334 -26 657 -26Z" transform="translate(1566,0)"/></g>
    </g>
    </g>
</svg>